<svg xmlns="http://www.w3.org/2000/svg" xmlns:svg="http://www.w3.org/2000/svg" xmlns:xlink="http://www.w3.org/1999/xlink" id="svg2" width="256" height="256" version="1.1"><title id="title6348">TurboSphere</title><defs id="defs4"><linearGradient id="linearGradient6340"><stop id="stop6342" offset="0" stop-color="#FFF" stop-opacity=".259"/><stop id="stop6344" offset="1" stop-color="#000" stop-opacity="1"/></linearGradient><linearGradient id="linearGradient6182"><stop id="stop6184" offset="0" stop-color="#000" stop-opacity="1"/><stop id="stop6320" offset=".5" stop-color="#000" stop-opacity="1"/><stop id="stop6186" offset="1" stop-color="#000" stop-opacity="0"/></linearGradient><linearGradient id="linearGradient4631"><stop id="stop4633" offset="0" stop-color="#FFF" stop-opacity="1"/><stop id="stop4635" offset="1" stop-color="#505050" stop-opacity="1"/></linearGradient><marker id="Arrow1Lstart" orient="auto" overflow="visible" refX="0" refY="0"><path id="path3811" fill-rule="evenodd" stroke="#000" stroke-width="1pt" d="M 0,0 5,-5 -12.5,0 5,5 0,0 z" transform="matrix(0.8,0,0,0.8,10,0)"/></marker><linearGradient id="linearGradient3759"><stop id="stop3771" offset="0" stop-color="#505050" stop-opacity="1"/><stop id="stop3763" offset="1" stop-color="#fff" stop-opacity="1"/></linearGradient><radialGradient id="radialGradient3773" cx="66.67" cy="189.33" r="73.736" fx="66.67" fy="189.33" gradientUnits="userSpaceOnUse" spreadMethod="pad" xlink:href="#linearGradient3759"/><linearGradient id="linearGradient4640" x1="170.661" x2="145.539" y1="228.738" y2="192.485" gradientTransform="matrix(1.8601546,0,0,1.8602156,-170.55644,567.67416)" gradientUnits="userSpaceOnUse" spreadMethod="pad" xlink:href="#linearGradient3759"/><linearGradient id="linearGradient4655" x1="60.457" x2="59.287" y1="1015.512" y2="904.954" gradientTransform="matrix(0.74603116,0,0,0.89116726,24.20637,107.56611)" gradientUnits="userSpaceOnUse" xlink:href="#linearGradient3759"/><linearGradient id="linearGradient4655-8" x1="61.608" x2="58.712" y1="919.648" y2="1030.45" gradientUnits="userSpaceOnUse" xlink:href="#linearGradient3759-2"/><linearGradient id="linearGradient3759-2"><stop id="stop3771-7" offset="0" stop-color="#505050" stop-opacity="1"/><stop id="stop3763-7" offset="1" stop-color="#fff" stop-opacity="1"/></linearGradient><linearGradient id="linearGradient4672" x1="59.283" x2="59.319" y1="1051.197" y2="927.807" gradientTransform="translate(-2.0000025,-3.6829118e-5)" gradientUnits="userSpaceOnUse" xlink:href="#linearGradient3759-2"/><linearGradient id="linearGradient4693" x1="157.601" x2="177.864" y1="196.741" y2="241.133" gradientTransform="matrix(-1.8601546,0,0,-1.8602156,426.55642,1281.0501)" gradientUnits="userSpaceOnUse" spreadMethod="pad" xlink:href="#linearGradient3759"/><linearGradient id="linearGradient4697" x1="59.283" x2="59.319" y1="1051.197" y2="927.807" gradientTransform="translate(154,-128.00005)" gradientUnits="userSpaceOnUse" xlink:href="#linearGradient3759-2"/><linearGradient id="linearGradient4701" x1="60.457" x2="59.287" y1="1015.512" y2="904.954" gradientTransform="matrix(0.74603116,0,0,0.89116726,154.20637,-20.434008)" gradientUnits="userSpaceOnUse" xlink:href="#linearGradient3759"/><radialGradient id="radialGradient4705" cx="66.67" cy="189.33" r="73.736" fx="66.67" fy="189.33" gradientUnits="userSpaceOnUse" spreadMethod="pad" xlink:href="#linearGradient4631"/><radialGradient id="radialGradient6210" cx="129.367" cy="127.241" r="20.65" fx="129.367" fy="127.241" gradientUnits="userSpaceOnUse" xlink:href="#linearGradient4631"/><linearGradient id="linearGradient6246" x1="-116.516" x2="-155.815" y1="285.921" y2="280.672" gradientUnits="userSpaceOnUse" xlink:href="#linearGradient6182"/><linearGradient id="linearGradient6250" x1="-116.516" x2="-155.815" y1="285.921" y2="280.672" gradientUnits="userSpaceOnUse" xlink:href="#linearGradient6182"/><linearGradient id="linearGradient6256" x1="-116.516" x2="-155.815" y1="285.921" y2="280.672" gradientUnits="userSpaceOnUse" xlink:href="#linearGradient3759-2"/><linearGradient id="linearGradient6258" x1="-116.516" x2="-155.815" y1="285.921" y2="280.672" gradientUnits="userSpaceOnUse" xlink:href="#linearGradient3759-2"/><linearGradient id="linearGradient6268" x1="-116.516" x2="-155.815" y1="285.921" y2="280.672" gradientUnits="userSpaceOnUse" xlink:href="#linearGradient6182"/><linearGradient id="linearGradient6270" x1="-116.516" x2="-155.815" y1="285.921" y2="280.672" gradientUnits="userSpaceOnUse" xlink:href="#linearGradient6182"/><linearGradient id="linearGradient6276" x1="-116.516" x2="-155.815" y1="285.921" y2="280.672" gradientUnits="userSpaceOnUse" xlink:href="#linearGradient6182"/><linearGradient id="linearGradient6278" x1="-116.516" x2="-155.815" y1="285.921" y2="280.672" gradientUnits="userSpaceOnUse" xlink:href="#linearGradient6182"/><linearGradient id="linearGradient6292" x1="-116.516" x2="-155.815" y1="285.921" y2="280.672" gradientUnits="userSpaceOnUse" xlink:href="#linearGradient6182"/><linearGradient id="linearGradient6294" x1="-116.516" x2="-155.815" y1="285.921" y2="280.672" gradientUnits="userSpaceOnUse" xlink:href="#linearGradient6182"/><linearGradient id="linearGradient6296" x1="-116.516" x2="-155.815" y1="285.921" y2="280.672" gradientUnits="userSpaceOnUse" xlink:href="#linearGradient6182"/><linearGradient id="linearGradient6298" x1="-116.516" x2="-155.815" y1="285.921" y2="280.672" gradientUnits="userSpaceOnUse" xlink:href="#linearGradient6182"/><linearGradient id="linearGradient6300" x1="-116.516" x2="-155.815" y1="285.921" y2="280.672" gradientUnits="userSpaceOnUse" xlink:href="#linearGradient6182"/><linearGradient id="linearGradient6302" x1="-116.516" x2="-155.815" y1="285.921" y2="280.672" gradientUnits="userSpaceOnUse" xlink:href="#linearGradient6182"/><linearGradient id="linearGradient6312" x1="-116.516" x2="-155.815" y1="285.921" y2="280.672" gradientUnits="userSpaceOnUse" xlink:href="#linearGradient6182"/><linearGradient id="linearGradient6314" x1="-116.516" x2="-155.815" y1="285.921" y2="280.672" gradientUnits="userSpaceOnUse" xlink:href="#linearGradient6182"/><radialGradient id="radialGradient6346" cx="126.937" cy="128.456" r="56.377" fx="126.937" fy="128.456" gradientUnits="userSpaceOnUse" xlink:href="#linearGradient6340"/></defs><metadata id="metadata7"/><g id="layer1" transform="translate(0,-796.36218)"><path id="path6222" fill="#42473d" fill-opacity="1" fill-rule="nonzero" stroke="#000" stroke-dasharray="none" stroke-dashoffset="0" stroke-linejoin="round" stroke-miterlimit="4" stroke-opacity="1" stroke-width="53.201" d="m 185.24318,128.45552 a 55.876633,55.876633 0 1 1 -111.753266,0 55.876633,55.876633 0 1 1 111.753266,0 z" transform="matrix(0.01936622,0,0,0.01936622,124.80933,922.04614)"/><path id="path2987" fill="url(#radialGradient3773)" fill-opacity="1" fill-rule="evenodd" stroke="#000" stroke-dasharray="none" stroke-dashoffset="0" stroke-linecap="butt" stroke-linejoin="round" stroke-miterlimit="4" stroke-opacity="1" stroke-width="1.152" marker-start="none" d="m 139.90613,189.32993 a 73.236061,73.236061 0 1 1 -146.4721243,0 73.236061,73.236061 0 1 1 146.4721243,0 z" transform="matrix(0.86796173,0,0,0.86796174,70.132933,760.03105)"/><path id="path4619" fill="url(#linearGradient4640)" fill-opacity="1" fill-rule="nonzero" stroke="#000" stroke-dasharray="none" stroke-dashoffset="0" stroke-linejoin="round" stroke-miterlimit="4" stroke-opacity="1" stroke-width=".947" d="m 187.52331,924.83554 c 0.27563,35.72374 -16.78076,70.9717 -44.81361,93.07806 -20.74222,16.6762 -47.228483,25.99 -73.842384,25.9752 -0.131289,-39.6843 -0.262599,-79.36886 -0.393906,-119.05326 39.68329,0 79.36661,0 119.0499,0 z"/><rect id="rect4642" width="11.253" height="113.253" x="57.373" y="931.736" fill="url(#linearGradient4655)" fill-opacity="1" fill-rule="nonzero" stroke="#000" stroke-dasharray="none" stroke-dashoffset="0" stroke-linejoin="round" stroke-miterlimit="4" stroke-opacity="1" stroke-width=".747" ry="0"/><path id="path4691" fill="url(#linearGradient4693)" fill-opacity="1" fill-rule="nonzero" stroke="#000" stroke-dasharray="none" stroke-dashoffset="0" stroke-linejoin="round" stroke-miterlimit="4" stroke-opacity="1" stroke-width=".947" d="m 68.476701,923.88877 c -0.27563,-35.72374 16.78076,-70.97171 44.813609,-93.07807 20.74222,-16.6762 47.22849,-25.99 73.84239,-25.9752 0.13129,39.6843 0.2626,79.36886 0.3939,119.05327 -39.68329,0 -79.36661,0 -119.049899,0 z"/><rect id="rect4699" width="11.253" height="113.253" x="187.373" y="803.736" fill="url(#linearGradient4701)" fill-opacity="1" fill-rule="nonzero" stroke="#000" stroke-dasharray="none" stroke-dashoffset="0" stroke-linejoin="round" stroke-miterlimit="4" stroke-opacity="1" stroke-width=".747" ry="0"/><path id="path4621" fill="url(#radialGradient4705)" fill-opacity="1" fill-rule="evenodd" stroke="#000" stroke-dasharray="none" stroke-dashoffset="0" stroke-linecap="butt" stroke-linejoin="round" stroke-miterlimit="4" stroke-opacity="1" stroke-width="1.152" marker-start="none" d="m 139.90613,189.32993 a 73.236061,73.236061 0 1 1 -146.4721243,0 73.236061,73.236061 0 1 1 146.4721243,0 z" transform="matrix(0.86796173,0,0,0.86796174,70.132933,760.03105)"/><rect id="rect4642-1" width="15.084" height="127.084" x="42.458" y="924.82" fill="url(#linearGradient4672)" fill-opacity="1" fill-rule="nonzero" stroke="#000" stroke-dasharray="none" stroke-dashoffset="0" stroke-linejoin="round" stroke-miterlimit="4" stroke-opacity="1" stroke-width=".916" ry="0"/><rect id="rect4695" width="15.084" height="127.084" x="198.458" y="796.82" fill="url(#linearGradient4697)" fill-opacity="1" fill-rule="nonzero" stroke="#000" stroke-dasharray="none" stroke-dashoffset="0" stroke-linejoin="round" stroke-miterlimit="4" stroke-opacity="1" stroke-width=".916" ry="0"/><path id="path4707" fill="#2c2027" fill-opacity="1" fill-rule="nonzero" stroke="#000" stroke-dasharray="23.992 1" stroke-dashoffset="0" stroke-linejoin="round" stroke-miterlimit="4" stroke-opacity="1" stroke-width="1" d="m 185.24318,128.45552 a 55.876633,55.876633 0 1 1 -111.753266,0 55.876633,55.876633 0 1 1 111.753266,0 z" transform="matrix(0.99331935,0,0,0.99331935,-0.50229367,796.76482)"/><path id="path6216" fill="url(#linearGradient6246)" fill-opacity="1" stroke="#000" stroke-dasharray="none" stroke-linecap="butt" stroke-linejoin="miter" stroke-miterlimit="4" stroke-opacity="1" stroke-width="4.903" d="m -136.04745,129.06287 c 53.129699,71.07775 -19.01914,154.15711 -89.19814,171.28907 -42.7992,10.44806 -86.32835,6.12309 -127.35987,-9.41477" transform="matrix(0.17800163,0.01299943,-0.0180236,0.24679774,154.102,893.51718)"/><path id="path6248" fill="url(#linearGradient6250)" fill-opacity="1" stroke="#000" stroke-dasharray="none" stroke-linecap="butt" stroke-linejoin="miter" stroke-miterlimit="4" stroke-opacity="1" stroke-width="4.903" d="m -136.04745,129.06287 c 53.129699,71.07775 -19.01914,154.15711 -89.19814,171.28907 -42.7992,10.44806 -86.32835,6.12309 -127.35987,-9.41477" transform="matrix(-0.17793189,-0.01392144,0.01930194,-0.24670104,100.58463,954.44444)"/><path id="path6260" fill="url(#linearGradient6314)" fill-opacity="1" stroke="#000" stroke-dasharray="none" stroke-linecap="butt" stroke-linejoin="miter" stroke-miterlimit="4" stroke-opacity="1" stroke-width="4.903" d="m -136.04745,129.06287 c 53.129699,71.07775 -19.01914,154.15711 -89.19814,171.28907 -42.7992,10.44806 -86.32835,6.12309 -127.35987,-9.41477" transform="matrix(0.17800163,0.01299943,-0.0180236,0.24679774,154.102,893.51718)"/><path id="path6262" fill="url(#linearGradient6312)" fill-opacity="1" stroke="#000" stroke-dasharray="none" stroke-linecap="butt" stroke-linejoin="miter" stroke-miterlimit="4" stroke-opacity="1" stroke-width="4.903" d="m -136.04745,129.06287 c 53.129699,71.07775 -19.01914,154.15711 -89.19814,171.28907 -42.7992,10.44806 -86.32835,6.12309 -127.35987,-9.41477" transform="matrix(-0.17793189,-0.01392144,0.01930194,-0.24670104,100.58463,954.44444)"/><path id="path6264" fill="url(#linearGradient6268)" fill-opacity="1" stroke="#000" stroke-dasharray="none" stroke-linecap="butt" stroke-linejoin="miter" stroke-miterlimit="4" stroke-opacity="1" stroke-width="4.903" d="m -136.04745,129.06287 c 53.129699,71.07775 -19.01914,154.15711 -89.19814,171.28907 -42.7992,10.44806 -86.32835,6.12309 -127.35987,-9.41477" transform="matrix(0.10025864,-0.14765419,0.20472128,0.13900778,114.36114,885.81861)"/><path id="path6266" fill="url(#linearGradient6270)" fill-opacity="1" stroke="#000" stroke-dasharray="none" stroke-linecap="butt" stroke-linejoin="miter" stroke-miterlimit="4" stroke-opacity="1" stroke-width="4.903" d="m -136.04745,129.06287 c 53.129699,71.07775 -19.01914,154.15711 -89.19814,171.28907 -42.7992,10.44806 -86.32835,6.12309 -127.35987,-9.41477" transform="matrix(-0.10102226,0.14713283,-0.20399841,-0.1400665,140.36694,962.62969)"/><path id="path6272" fill="url(#linearGradient6276)" fill-opacity="1" stroke="#000" stroke-dasharray="none" stroke-linecap="butt" stroke-linejoin="miter" stroke-miterlimit="4" stroke-opacity="1" stroke-width="4.903" d="m -136.04745,129.06287 c 53.129699,71.07775 -19.01914,154.15711 -89.19814,171.28907 -42.7992,10.44806 -86.32835,6.12309 -127.35987,-9.41477" transform="matrix(-0.07774298,-0.16065364,0.22274494,-0.10778997,87.846391,916.39208)"/><path id="path6274" fill="url(#linearGradient6278)" fill-opacity="1" stroke="#000" stroke-dasharray="none" stroke-linecap="butt" stroke-linejoin="miter" stroke-miterlimit="4" stroke-opacity="1" stroke-width="4.903" d="m -136.04745,129.06287 c 53.129699,71.07775 -19.01914,154.15711 -89.19814,171.28907 -42.7992,10.44806 -86.32835,6.12309 -127.35987,-9.41477" transform="matrix(0.07690964,0.16105424,-0.22330034,0.10663455,167.36962,932.27587)"/><path id="path6280" fill="url(#linearGradient6292)" fill-opacity="1" stroke="#000" stroke-dasharray="none" stroke-linecap="butt" stroke-linejoin="miter" stroke-miterlimit="4" stroke-opacity="1" stroke-width="4.903" d="m -136.04745,129.06287 c 53.129699,71.07775 -19.01914,154.15711 -89.19814,171.28907 -42.7992,10.44806 -86.32835,6.12309 -127.35987,-9.41477" transform="matrix(0.16065364,-0.07774298,0.10778997,0.22274493,135.26236,884.35123)"/><path id="path6282" fill="url(#linearGradient6294)" fill-opacity="1" stroke="#000" stroke-dasharray="none" stroke-linecap="butt" stroke-linejoin="miter" stroke-miterlimit="4" stroke-opacity="1" stroke-width="4.903" d="m -136.04745,129.06287 c 53.129699,71.07775 -19.01914,154.15711 -89.19814,171.28907 -42.7992,10.44806 -86.32835,6.12309 -127.35987,-9.41477" transform="matrix(-0.16105423,0.07690964,-0.10663455,-0.22330034,119.37854,963.87447)"/><path id="path6284" fill="url(#linearGradient6296)" fill-opacity="1" stroke="#000" stroke-dasharray="none" stroke-linecap="butt" stroke-linejoin="miter" stroke-miterlimit="4" stroke-opacity="1" stroke-width="4.903" d="m -136.04745,129.06287 c 53.129699,71.07775 -19.01914,154.15711 -89.19814,171.28907 -42.7992,10.44806 -86.32835,6.12309 -127.35987,-9.41477" transform="matrix(0.01299943,-0.17800163,0.24679774,0.0180236,96.996464,897.55452)"/><path id="path6286" fill="url(#linearGradient6298)" fill-opacity="1" stroke="#000" stroke-dasharray="none" stroke-linecap="butt" stroke-linejoin="miter" stroke-miterlimit="4" stroke-opacity="1" stroke-width="4.903" d="m -136.04745,129.06287 c 53.129699,71.07775 -19.01914,154.15711 -89.19814,171.28907 -42.7992,10.44806 -86.32835,6.12309 -127.35987,-9.41477" transform="matrix(-0.01392144,0.17793189,-0.24670105,-0.01930194,157.9237,951.07191)"/><path id="path6288" fill="url(#linearGradient6300)" fill-opacity="1" stroke="#000" stroke-dasharray="none" stroke-linecap="butt" stroke-linejoin="miter" stroke-miterlimit="4" stroke-opacity="1" stroke-width="4.903" d="m -136.04745,129.06287 c 53.129699,71.07775 -19.01914,154.15711 -89.19814,171.28907 -42.7992,10.44806 -86.32835,6.12309 -127.35987,-9.41477" transform="matrix(-0.14765419,-0.10025864,0.13900779,-0.20472128,89.320752,937.2893)"/><path id="path6290" fill="url(#linearGradient6302)" fill-opacity="1" stroke="#000" stroke-dasharray="none" stroke-linecap="butt" stroke-linejoin="miter" stroke-miterlimit="4" stroke-opacity="1" stroke-width="4.903" d="m -136.04745,129.06287 c 53.129699,71.07775 -19.01914,154.15711 -89.19814,171.28907 -42.7992,10.44806 -86.32835,6.12309 -127.35987,-9.41477" transform="matrix(0.14713283,0.10102226,-0.14006651,0.20399841,166.13181,911.28345)"/><path id="path6330" fill="url(#radialGradient6346)" fill-opacity="1" fill-rule="nonzero" stroke="#000" stroke-dasharray="none" stroke-dashoffset="0" stroke-linejoin="round" stroke-miterlimit="4" stroke-opacity="1" stroke-width="1" d="m 182.81377,128.45552 a 55.876633,55.876633 0 1 1 -111.753269,0 55.876633,55.876633 0 1 1 111.753269,0 z" transform="matrix(0.99331935,0,0,0.99331935,1.9108891,796.76483)"/><path id="path6202" fill="url(#radialGradient6210)" fill-opacity="1" fill-rule="nonzero" stroke="#000" stroke-dasharray="none" stroke-dashoffset="0" stroke-linejoin="round" stroke-miterlimit="4" stroke-opacity="1" stroke-width=".492" d="m 150.01661,127.24081 a 20.650059,20.650059 0 1 1 -41.30012,0 20.650059,20.650059 0 1 1 41.30012,0 z" transform="matrix(1.0169463,0,0,1.0169463,-4.5588301,795.96511)"/></g></svg>